<svg t="1739603927834" class="icon" viewBox="0 0 1024 1024" version="1.1" xmlns="http://www.w3.org/2000/svg" p-id="6121" width="200" height="200"><path d="M269.298967 1020.89697h-1.892848a118.846061 118.846061 0 0 1-114.812121-140.443152l36.615757-219.136a6.888727 6.888727 0 0 0-1.644606-2.947879l-152.110545-153.693091a119.932121 119.932121 0 0 1-29.323637-122.94206 119.311515 119.311515 0 0 1 93.401212-81.95103l211.409455-32.457697 95.045818-200.207516A116.239515 116.239515 0 0 1 510.621634 0c44.993939 0 85.147152 25.6 104.944485 66.839273l94.176969 200.424727 211.719758 32.426667a119.77697 119.77697 0 0 1 94.021818 80.92703 122.259394 122.259394 0 0 1-27.927272 122.569697l-0.310304 0.310303-152.824242 157.944242 35.746909 218.856728c5.740606 35.746909-3.785697 71.059394-26.003394 97.124848-30.844121 40.804848-91.942788 57.31297-143.142788 28.516849l-189.595151-103.796364a15.235879 15.235879 0 0 0-1.861818 0.434424l-186.33697 103.455031a103.45503 103.45503 0 0 1-53.992727 14.863515" fill="#4379FE" p-id="6122"></path></svg>